<svg xmlns="http://www.w3.org/2000/svg" height="37.587" width="247.8"><g fill="#59caf5"><path d="M0 19.788c0-4.291.393-7.355 1.18-9.19a13.597 13.597 0 013.187-4.592 14.337 14.337 0 014.646-2.943 15.404 15.404 0 015.633-1.039c1.325 0 2.58.137 3.771.41.45.103.873.22 1.268.353.3.103.542.2.729.288V8.55c-.424-.2-1.016-.372-1.773-.52-1.1-.229-2.43-.342-3.995-.342-2.597 0-4.776.818-6.542 2.454-1.789 1.667-2.682 4.883-2.682 9.646 0 4.765.893 7.976 2.682 9.636 1.766 1.637 3.945 2.456 6.542 2.456 1.565 0 2.896-.11 3.995-.332.443-.088.85-.195 1.224-.322.283-.095.469-.165.549-.21v5.476c-.193.088-.437.189-.73.3a19.32 19.32 0 01-1.267.352c-1.19.274-2.446.41-3.771.41-1.974 0-3.852-.346-5.633-1.04a14.219 14.219 0 01-4.646-2.953 13.482 13.482 0 01-3.187-4.58C.393 27.146 0 24.082 0 19.788M35.464 11.68c3.69 0 6.537.89 8.542 2.667 2.08 1.844 3.12 4.58 3.12 8.207v14.492h-5.342V22.997c0-2.508-.622-4.193-1.865-5.055-.86-.59-2.344-.886-4.455-.886-1.846 0-3.591.513-5.23 1.539v18.45h-5.33V0h5.33v13.108c1.55-.95 3.292-1.427 5.23-1.427M56.946 37.067h-5.331V14.413c1.45-1.003 3.156-1.74 5.117-2.212 3.32-.797 6.813-.712 10.471.254v5.2c-1.952-.68-3.844-1.023-5.669-1.03-1.69-.007-3.221.303-4.588.929v19.513M74.206 24.612c0 3.12.729 5.273 2.19 6.46 1.286 1.04 2.83 1.56 4.633 1.56 1.961 0 3.573-.579 4.839-1.736 1.33-1.21 1.997-3.305 1.997-6.284 0-2.98-.667-5.07-1.997-6.273-1.266-1.164-2.878-1.747-4.839-1.747-1.802 0-3.347.52-4.633 1.56-1.461 1.187-2.19 3.341-2.19 6.46zm6.823 12.942a13.01 13.01 0 01-4.792-.885 11.52 11.52 0 01-3.805-2.4 10.84 10.84 0 01-2.468-3.572c-.591-1.387-.885-3.415-.885-6.085s.294-4.697.885-6.084a10.829 10.829 0 012.468-3.573c2.305-2.19 5.172-3.285 8.597-3.285 1.692 0 3.289.294 4.794.884 1.45.561 2.695 1.343 3.737 2.345 1.115 1.07 1.958 2.279 2.536 3.629.591 1.387.886 3.414.886 6.084 0 2.67-.295 4.698-.886 6.085a10.996 10.996 0 01-2.536 3.627c-2.253 2.154-5.096 3.23-8.53 3.23M113.227 22.544c0-2.5-.62-4.185-1.862-5.056-.868-.59-2.355-.885-4.456-.885a10.045 10.045 0 00-4.12.852l-.583.244-.526.231v19.093h-5.331V14.635c3.269-1.97 6.789-2.955 10.56-2.955 3.682 0 6.523.886 8.528 2.655 2.089 1.852 3.133 4.588 3.133 8.209v14.48h-5.343v-14.48M127.065 24.612c0 3.12.73 5.273 2.19 6.46 1.287 1.04 2.831 1.56 4.633 1.56 1.961 0 3.573-.579 4.839-1.736 1.33-1.21 1.997-3.305 1.997-6.284 0-2.98-.667-5.07-1.997-6.273-1.266-1.164-2.878-1.747-4.839-1.747-1.802 0-3.346.52-4.633 1.56-1.46 1.187-2.19 3.341-2.19 6.46zm6.823 12.942c-1.69 0-3.286-.295-4.792-.885a11.512 11.512 0 01-3.804-2.4 10.812 10.812 0 01-2.469-3.572c-.591-1.387-.886-3.415-.886-6.085s.295-4.697.886-6.084a10.802 10.802 0 012.469-3.573c2.304-2.19 5.172-3.285 8.596-3.285 1.693 0 3.29.294 4.795.884 1.45.561 2.694 1.343 3.737 2.345a11.006 11.006 0 012.536 3.629c.59 1.387.885 3.414.885 6.084 0 2.67-.294 4.698-.885 6.085a11.002 11.002 0 01-2.536 3.627c-2.253 2.154-5.097 3.23-8.532 3.23M151.633 30.475c2.566 1.26 4.586 1.89 6.06 1.89 2.072 0 3.11-.626 3.11-1.88 0-.656-.378-1.29-1.134-1.902-.59-.48-1.694-1.135-3.312-1.969-.508-.265-1.204-.615-2.081-1.05-.88-.435-1.437-.713-1.677-.83-1.198-.62-2.062-1.173-2.594-1.66-1.278-1.194-1.918-2.607-1.918-4.236 0-1.88.692-3.488 2.074-4.823 1.61-1.572 3.836-2.357 6.68-2.357 2.514 0 5.128.664 7.844 1.991l-2.604 4.36c-.336-.23-.808-.461-1.414-.698a10.737 10.737 0 00-3.826-.686c-1.916 0-2.874.623-2.874 1.869 0 .583.546 1.2 1.64 1.848.828.487 2.412 1.224 4.748 2.212 2.122.908 3.697 1.955 4.724 3.143 1.106 1.282 1.661 2.828 1.661 4.633 0 2.03-.875 3.744-2.628 5.145-1.741 1.401-4.07 2.102-6.979 2.102-2.92 0-5.822-1.018-8.71-3.054l3.21-4.048M190.807 17.952h-16.839V2.995h-2.93v34.013h2.93V20.68h16.839v16.327h2.94V2.995h-2.94v14.957M217.436 33.27l-2.055.885c-.518.214-.981.38-1.398.504a12.231 12.231 0 01-3.558.506c-2.57 0-4.39-.39-5.564-1.192-1.733-1.205-2.608-3.416-2.608-6.576V13.57h-2.857v13.828c0 3.48.933 6.001 2.853 7.702 1.863 1.65 4.614 2.488 8.176 2.488 3.482 0 6.794-.86 9.856-2.562V13.569h-2.845V33.27M242.64 32.866c-1.485 1.509-3.37 2.276-5.603 2.276-2.925 0-5.377-.659-7.286-1.96l-.623-.423V18.464l.552-.427c1.305-1.014 2.36-1.684 3.227-2.05 1.146-.492 2.537-.741 4.13-.741 2.232 0 4.118.766 5.606 2.28 1.549 1.566 2.302 4.074 2.302 7.668 0 3.594-.753 6.103-2.305 7.672zm2.152-16.962a10.118 10.118 0 00-3.39-2.25 11.423 11.423 0 00-4.365-.842c-2.24 0-4.164.508-5.713 1.51l-2.196 1.42V.277h-2.857v33.968c1.293.974 2.788 1.753 4.452 2.318 1.97.67 4.093 1.011 6.314 1.011 1.539 0 3.008-.28 4.368-.828a10.523 10.523 0 003.387-2.264c.955-.955 1.7-2.078 2.219-3.339.36-.887.792-2.87.792-7.25 0-3.35-.986-5.964-3.011-7.99"/></g></svg>